<?xml version="1.0" encoding="UTF-8"?><!DOCTYPE svg PUBLIC "-//W3C//DTD SVG 1.1//EN" "http://www.w3.org/Graphics/SVG/1.1/DTD/svg11.dtd"><svg xmlns="http://www.w3.org/2000/svg"><symbol id="icon-home" viewBox="0 0 24 24">
    <path d="M22.262 10.468c-3.39-2.854-9.546-8.171-9.607-8.225L12 1.68l-.652.563c-.062.053-6.221 5.368-9.66 8.248A2.042 2.042 0 0 0 1 12a2 2 0 0 0 2 2h1v6a2 2 0 0 0 2 2h12a2 2 0 0 0 2-2v-6h1a2 2 0 0 0 2-2c0-.598-.275-1.161-.738-1.532zM14 20h-4v-5h4v5zm4-8l.002 8H15v-6H9v6H6v-8H2.999C5.764 9.688 10.314 5.773 12 4.32c1.686 1.453 6.234 5.367 9 7.681L18 12z"/>
</symbol><symbol id="icon-layers" viewBox="0 0 30 30">
    <path d="M26 9a.997.997 0 0 0-.625-.924l-9.459-4.854h-.018C15.627 3.085 15.325 3 15 3s-.627.085-.898.222h-.018L4.625 8.076a.997.997 0 0 0-.008 1.847v.02l9.474 4.838.009-.004c.272.138.574.223.9.223s.628-.085.9-.223l.009.004 9.474-4.838v-.02A1 1 0 0 0 26 9z"/>
    <path d="M25.375 14.076l-1.851-.95a1762.61 1762.61 0 0 1-6.916 3.528 3.916 3.916 0 0 1-3.221-.002c-.044-.016-4.005-2.038-6.911-3.526l-1.851.95a.997.997 0 0 0-.008 1.847v.02l9.474 4.838.009-.004c.272.138.574.223.9.223s.628-.085.9-.223l.009.004 9.474-4.838v-.02a.997.997 0 0 0-.008-1.847z"/>
    <path d="M25.375 20.076l-1.851-.95a1762.61 1762.61 0 0 1-6.916 3.528 3.916 3.916 0 0 1-3.221-.002c-.044-.016-4.005-2.038-6.911-3.526l-1.851.95a.997.997 0 0 0-.008 1.847v.02l9.474 4.838.009-.004c.272.138.574.223.9.223s.628-.085.9-.223l.009.004 9.474-4.838v-.02a.997.997 0 0 0-.008-1.847z"/>
</symbol><symbol id="icon-link" viewBox="0 0 64 64">
    <style>
        .st0{fill:#134563}
    </style>
    <g id="Icon-Link" transform="translate(30 380)">
        <path class="st0" d="M.5-339.7c.1.4.1.8.1 1.2 0 2.2-.8 4.2-2.4 5.7l-3.2 3.2c-1.5 1.5-3.6 2.4-5.7 2.4-4.5 0-8.1-3.6-8.1-8.1 0-2.2.8-4.2 2.4-5.7l3.2-3.2c1.5-1.5 3.6-2.4 5.8-2.4.4 0 .8.1 1.2.1l2.5-2.5c-1.2-.4-2.4-.6-3.7-.6-3 0-5.8 1.2-7.9 3.3l-3.2 3.2c-2.1 2.1-3.3 4.9-3.3 7.9 0 6.1 5 11.1 11.1 11.1 3 0 5.8-1.2 7.9-3.3l3.2-3.2c2.1-2.1 3.3-4.9 3.3-7.9 0-1.3-.2-2.5-.6-3.7l-2.6 2.5" id="Fill-177"/>
        <path class="st0" d="M14.9-372c-3 0-5.8 1.2-7.9 3.3l-3.2 3.2c-2.1 2.1-3.3 4.9-3.3 7.9 0 1.3.2 2.5.6 3.7l2.5-2.5c-.1-.4-.1-.8-.1-1.2 0-2.2.8-4.2 2.4-5.7l3.2-3.2c1.5-1.5 3.6-2.4 5.8-2.4 4.5 0 8.1 3.6 8.1 8.1 0 2.2-.8 4.2-2.4 5.7l-3.2 3.2c-1.5 1.5-3.6 2.4-5.7 2.4-.4 0-.8-.1-1.2-.1L8-347.2c1.2.4 2.4.6 3.7.6 3 0 5.8-1.2 7.9-3.3l3.2-3.2c2.1-2.1 3.3-4.9 3.3-7.9-.1-6-5.1-11-11.2-11" id="Fill-178"/>
        <path class="st0" d="M-5.9-338.5c-.4 0-.8-.2-1.1-.5-.6-.6-.6-1.6 0-2.3l16-16c.6-.6 1.6-.6 2.3 0 .6.6.6 1.6 0 2.3l-16 16c-.4.4-.8.5-1.2.5" id="Fill-179"/>
    </g>
</symbol><symbol id="icon-settings" viewBox="0 0 64 64">
    <circle cx="32" cy="32" r="4.167"/>
    <path d="M55.192 27.87l-5.825-1.092a17.98 17.98 0 0 0-1.392-3.371l3.37-4.927c.312-.456.248-1.142-.143-1.532l-4.155-4.156c-.391-.391-1.076-.454-1.532-.143l-4.928 3.372a18.023 18.023 0 0 0-3.473-1.42l-1.086-5.794c-.103-.543-.632-.983-1.185-.983h-5.877c-.553 0-1.082.44-1.185.983l-1.097 5.851c-1.165.356-2.282.82-3.334 1.392l-4.866-3.329c-.456-.312-1.142-.248-1.532.143l-4.156 4.156c-.391.391-.454 1.076-.143 1.532l3.35 4.896a18.055 18.055 0 0 0-1.371 3.331L8.808 27.87c-.542.103-.982.632-.982 1.185v5.877c0 .553.44 1.082.982 1.185l5.82 1.091a18.013 18.013 0 0 0 1.401 3.399l-3.312 4.842c-.312.456-.248 1.142.143 1.532l4.155 4.156c.391.391 1.076.454 1.532.143l4.84-3.313a18.086 18.086 0 0 0 3.299 1.375l1.097 5.852c.103.542.632.982 1.185.982h5.877c.553 0 1.082-.44 1.185-.982l1.086-5.796a18.174 18.174 0 0 0 3.438-1.401l4.902 3.354c.456.312 1.142.248 1.532-.143l4.155-4.154c.391-.391.454-1.076.143-1.532l-3.335-4.874a18.016 18.016 0 0 0 1.423-3.44l5.819-1.091c.542-.103.982-.632.982-1.185v-5.877c0-.553-.441-1.082-.983-1.185zM32 42.085c-5.568 0-10.083-4.515-10.083-10.086 0-5.567 4.515-10.083 10.083-10.083 5.57 0 10.086 4.516 10.086 10.083 0 5.571-4.517 10.086-10.086 10.086z"/>
</symbol></svg>